#!OML:ASF X:\für Bonn\!DataBase\2005_08_12_Daniel\c3d\Daniel.ASF
:FULLY-SPECIFIED
:DEGREES
294
root 0.619088 14.8 -14.69 348.155 22.6691 -1.11923
lowerback 51.6752 -2.84169 5.70689
upperback 10.698 -0.0985169 -1.61337
thorax -8.75114 0.295193 -4.38257
lowerneck 0.660022 -5.05582 -3.87861
upperneck 9.56859 -7.08376 5.92541
head 3.39405 -3.42751 2.43328
rclavicle -4.96962e-016 -1.0138e-014
rhumerus 4.68781 17.698 -94.0282
rradius 29.6929
rwrist -17.4034
rhand -10.3094 10.9452
rfingers 7.12502
rthumb 15.6857 -18.439
lclavicle -4.96962e-016 -1.0138e-014
lhumerus -16.1547 25.0808 86.4711
lradius 30.4158
lwrist -20.7239
lhand -11.6656 -6.81221
lfingers 7.12502
lthumb 14.3792 22.6698
rfemur -28.8385 -25.7913 8.29637
rtibia 83.8262
rfoot -17.741 -335.79
rtoes 2.97114
lfemur -36.3221 3.65422 -17.9958
ltibia 83.287
lfoot -31.624 -21.5817
ltoes 0.493471
295
root 0.643363 14.9351 -14.6675 348.51 22.6116 -1.19667
lowerback 50.9148 -2.7406 5.61416
upperback 10.5992 -0.0952163 -1.60526
thorax -8.77323 0.280207 -4.34147
lowerneck 0.545483 -5.05342 -4.07208
upperneck 9.34524 -7.07778 6.03106
head 3.35274 -3.43055 2.5022
rclavicle -3.04141e-014 1.28216e-014
rhumerus 3.62147 18.3792 -93.7868
rradius 31.0625
rwrist -18.7376
rhand -10.0375 10.8714
rfingers 7.12502
rthumb 15.9475 -18.4921
lclavicle -3.04141e-014 1.28216e-014
lhumerus -16.4146 25.192 86.2774
lradius 30.4199
lwrist -20.5507
lhand -11.5963 -6.73772
lfingers 7.12502
lthumb 14.446 22.7395
rfemur -28.1477 -25.3471 8.72942
rtibia 82.0669
rfoot -17.8071 -336.321
rtoes 2.61257
lfemur -35.5713 3.36102 -18.0745
ltibia 81.7105
lfoot -31.5029 -21.0522
ltoes -0.0772509
296
root 0.667108 15.0665 -14.6448 348.819 22.5596 -1.30186
lowerback 50.2658 -2.64697 5.54516
upperback 10.4344 -0.0778592 -1.59101
thorax -8.87558 0.268287 -4.3099
lowerneck 0.472478 -5.05472 -4.25173
upperneck 9.14498 -7.0764 6.11873
head 3.31045 -3.4359 2.56337
rclavicle 7.85199e-015 5.36719e-015
rhumerus 2.49429 18.947 -93.5961
rradius 32.3334
rwrist -19.9927
rhand -9.7865 10.7644
rfingers 7.12502
rthumb 16.1892 -18.5795
lclavicle 7.85199e-015 5.36719e-015
lhumerus -16.748 25.2326 86.0761
lradius 30.4509
lwrist -20.3986
lhand -11.5352 -6.60421
lfingers 7.12502
lthumb 14.5049 22.8688
rfemur -27.4097 -24.8919 9.1614
rtibia 80.3107
rfoot -17.8502 -336.849
rtoes 2.35606
lfemur -34.8205 3.06351 -18.1123
ltibia 80.1638
lfoot -31.3409 -20.5334
ltoes -0.536435
297
root 0.691562 15.1941 -14.6204 349.119 22.5052 -1.39876
lowerback 49.598 -2.53668 5.45911
upperback 10.2778 -0.046751 -1.56502
thorax -8.95985 0.263287 -4.26334
lowerneck 0.386471 -5.07362 -4.44841
upperneck 8.96841 -7.09948 6.22185
head 3.28217 -3.4527 2.63189
rclavicle -5.46658e-015 -3.01159e-014
rhumerus 1.33872 19.4484 -93.3833
rradius 33.6345
rwrist -21.2328
rhand -9.56682 10.6746
rfingers 7.12502
rthumb 16.4008 -18.652
lclavicle -5.46658e-015 -3.01159e-014
lhumerus -17.1022 25.2498 85.8876
lradius 30.506
lwrist -20.2667
lhand -11.4152 -6.51921
lfingers 7.12502
lthumb 14.6205 22.9454
rfemur -26.6718 -24.4633 9.56183
rtibia 78.583
rfoot -17.9197 -337.382
rtoes 2.17294
lfemur -34.0581 2.78937 -18.159
ltibia 78.6374
lfoot -31.1905 -20.0187
ltoes -1.10873
298
root 0.716486 15.3158 -14.5951 349.416 22.4342 -1.49491
lowerback 48.9096 -2.43168 5.39115
upperback 10.1309 -0.016698 -1.57025
thorax -9.0249 0.260304 -4.25854
lowerneck 0.347505 -5.08852 -4.56373
upperneck 8.71516 -7.11485 6.29985
head 3.21284 -3.46526 2.67838
rclavicle -5.91881e-014 3.85145e-014
rhumerus 0.247197 19.8679 -93.2215
rradius 34.8504
rwrist -22.4072
rhand -9.35149 10.5462
rfingers 7.12502
rthumb 16.6081 -18.7632
lclavicle -5.91881e-014 3.85145e-014
lhumerus -17.4072 25.2152 85.6727
lradius 30.5319
lwrist -20.1471
lhand -11.2879 -6.37279
lfingers 7.12502
lthumb 14.7431 23.0829
rfemur -25.9459 -24.0215 9.95333
rtibia 76.8802
rfoot -18.0309 -337.895
rtoes 1.76593
lfemur -33.321 2.506 -18.1916
ltibia 77.1513
lfoot -31.0281 -19.5391
ltoes -1.51057
299
root 0.741041 15.4326 -14.5696 349.691 22.3931 -1.56049
lowerback 47.3419 -2.26459 5.27858
upperback 10.9351 -0.00834987 -1.47157
thorax -9.17264 0.239914 -4.29671
lowerneck 0.385714 -5.10571 -4.67911
upperneck 8.48971 -7.13859 6.41514
head 3.1415 -3.48156 2.73922
rclavicle -3.3694e-014 -3.47873e-015
rhumerus -0.872979 20.2058 -93.1114
rradius 36.0504
rwrist -23.516
rhand -9.19748 10.3987
rfingers 7.12502
rthumb 16.7563 -18.8982
lclavicle -3.3694e-014 -3.47873e-015
lhumerus -17.7324 25.164 85.4417
lradius 30.5818
lwrist -19.9756
lhand -11.0911 -6.26426
lfingers 7.12502
lthumb 14.9328 23.1775
rfemur -25.2055 -23.6044 10.2775
rtibia 75.2284
rfoot -18.1499 -338.419
rtoes 1.40794
lfemur -32.5795 2.22495 -18.2555
ltibia 75.6888
lfoot -30.808 -19.0827
ltoes -1.83709
300
root 0.765919 15.5442 -14.5429 349.969 22.3261 -1.64326
lowerback 46.6935 -2.15252 5.13575
upperback 10.7273 0.00598112 -1.4701
thorax -9.25353 0.228757 -4.2335
lowerneck 0.454426 -5.09552 -4.77379
upperneck 8.25757 -7.12309 6.48471
head 3.05635 -3.47958 2.78278
rclavicle 3.29361e-014 -1.36664e-014
rhumerus -1.95165 20.5335 -93.0299
rradius 37.1721
rwrist -24.5392
rhand -9.05056 10.2282
rfingers 7.12502
rthumb 16.8978 -19.0567
lclavicle 3.29361e-014 -1.36664e-014
lhumerus -18.0821 25.1956 85.2134
lradius 30.6311
lwrist -19.8001
lhand -10.9895 -6.19292
lfingers 7.12502
lthumb 15.0306 23.2415
rfemur -24.488 -23.1777 10.6216
rtibia 73.6007
rfoot -18.27 -338.929
rtoes 1.13284
lfemur -31.8735 1.97458 -18.2819
ltibia 74.2764
lfoot -30.6118 -18.6396
ltoes -2.28159
301
root 0.791502 15.6525 -14.5154 350.207 22.2703 -1.74659
lowerback 46.0869 -2.06352 5.02345
upperback 10.4908 0.00971391 -1.48346
thorax -9.37346 0.212069 -4.1971
lowerneck 0.569012 -5.07594 -4.88816
upperneck 8.05403 -7.10052 6.60318
head 2.97582 -3.47372 2.84815
rclavicle -2.10463e-014 4.70871e-014
rhumerus -3.0805 20.7961 -93.001
rradius 38.2602
rwrist -25.5024
rhand -8.98023 10.0395
rfingers 7.12502
rthumb 16.9655 -19.2396
lclavicle -2.10463e-014 4.70871e-014
lhumerus -18.4802 25.1774 84.9336
lradius 30.6831
lwrist -19.6422
lhand -10.8489 -6.18019
lfingers 7.12502
lthumb 15.1661 23.244
rfemur -23.7459 -22.7595 10.9561
rtibia 72.0065
rfoot -18.3897 -339.443
rtoes 0.670543
lfemur -31.144 1.69482 -18.2803
ltibia 72.8762
lfoot -30.3533 -18.2699
ltoes -2.41407
302
root 0.816828 15.7561 -14.4868 350.462 22.2254 -1.83148
lowerback 45.4585 -1.97132 4.88776
upperback 10.2368 0.0069342 -1.50002
thorax -9.50403 0.1921 -4.14931
lowerneck 0.621005 -5.06463 -4.95912
upperneck 7.98553 -7.08859 6.65832
head 2.94838 -3.47078 2.88188
rclavicle 2.08227e-014 4.72114e-015
rhumerus -4.20354 20.9518 -93.0123
rradius 39.2329
rwrist -26.3031
rhand -8.89237 9.90207
rfingers 7.12502
rthumb 17.05 -19.3697
lclavicle 2.08227e-014 4.72114e-015
lhumerus -18.9046 25.2396 84.6532
lradius 30.7285
lwrist -19.5725
lhand -10.7677 -6.18231
lfingers 7.12502
lthumb 15.2443 23.236
rfemur -23.0274 -22.3473 11.2774
rtibia 70.4401
rfoot -18.5066 -339.98
rtoes 0.199042
lfemur -30.4643 1.4223 -18.2972
ltibia 71.5204
lfoot -30.1143 -17.8986
ltoes -2.61096
303
root 0.843433 15.8556 -14.4573 350.673 22.1595 -1.91203
lowerback 44.85 -1.88805 4.77811
upperback 9.99169 0.00462212 -1.54732
thorax -9.62501 0.174363 -4.14793
lowerneck 0.59417 -5.0534 -5.02754
upperneck 8.00517 -7.07975 6.73542
head 2.9669 -3.46643 2.9208
rclavicle 1.98785e-014 -3.19049e-014
rhumerus -5.28241 20.969 -93.0858
rradius 40.0767
rwrist -27.0369
rhand -8.78516 9.88007
rfingers 7.12502
rthumb 17.1532 -19.3828
lclavicle 1.98785e-014 -3.19049e-014
lhumerus -19.2906 25.1114 84.3509
lradius 30.7502
lwrist -19.2967
lhand -10.7466 -6.23485
lfingers 7.12502
lthumb 15.2646 23.1819
rfemur -22.2782 -21.9261 11.5619
rtibia 68.9127
rfoot -18.6224 -340.497
rtoes -0.223694
lfemur -29.7231 1.17167 -18.312
ltibia 70.1824
lfoot -29.8731 -17.542
ltoes -2.80203
304
root 0.8698 15.9501 -14.4269 350.867 22.12 -2.02027
lowerback 44.2143 -1.83274 4.67419
upperback 9.75274 -0.0270791 -1.58651
thorax -9.72918 0.143972 -4.12736
lowerneck 0.499926 -5.03599 -5.09259
upperneck 8.08998 -7.06236 6.7965
head 3.01865 -3.45632 2.95241
rclavicle 1.78906e-014 -1.26228e-014
rhumerus -6.33876 20.9546 -93.1797
rradius 40.8692
rwrist -27.6903
rhand -8.7068 9.86429
rfingers 7.12502
rthumb 17.2287 -19.392
lclavicle 1.78906e-014 -1.26228e-014
lhumerus -19.6882 25.0533 84.0288
lradius 30.7869
lwrist -19.0348
lhand -10.7086 -6.35445
lfingers 7.12502
lthumb 15.3012 23.0595
rfemur -21.5426 -21.4955 11.871
rtibia 67.431
rfoot -18.7564 -341.076
rtoes -0.800498
lfemur -29.0356 0.872537 -18.3036
ltibia 68.8978
lfoot -29.6121 -17.1742
ltoes -2.93262
305
root 0.896289 16.0391 -14.3955 351.061 22.057 -2.08582
lowerback 43.5759 -1.76444 4.54117
upperback 9.5053 -0.0582588 -1.65564
thorax -9.83817 0.114588 -4.12447
lowerneck 0.413499 -5.01849 -5.11239
upperneck 8.2208 -7.04689 6.84606
head 3.08213 -3.44564 2.97187
rclavicle -3.08116e-015 2.54444e-014
rhumerus -7.3671 20.8771 -93.3272
rradius 41.5421
rwrist -28.306
rhand -8.66972 9.92576
rfingers 7.12502
rthumb 17.2643 -19.3274
lclavicle -3.08116e-015 2.54444e-014
lhumerus -20.1102 24.9892 83.6625
lradius 30.8307
lwrist -18.8448
lhand -10.6355 -6.5092
lfingers 7.12502
lthumb 15.3716 22.8994
rfemur -20.8243 -21.0412 12.1347
rtibia 66.0058
rfoot -18.852 -341.657
rtoes -1.32504
lfemur -28.3403 0.615873 -18.3292
ltibia 67.6485
lfoot -29.3997 -16.7967
ltoes -3.0883
